<svg width="300" height="300" viewBox="0 0 49 41" fill="none" xmlns="http://www.w3.org/2000/svg">
<circle cx="7.5" cy="3.5" r="3.5" fill="#D9D9D9" fill-opacity="0.43"/>
<circle cx="7.5" cy="3.5" r="3" stroke="white" stroke-opacity="0.45"/>
<circle cx="7.5" cy="37.5" r="3.5" fill="#D9D9D9" fill-opacity="0.43"/>
<circle cx="7.5" cy="37.5" r="3" stroke="white" stroke-opacity="0.45"/>
<circle cx="3.5" cy="19.5" r="3.5" fill="#D9D9D9" fill-opacity="0.43"/>
<circle cx="3.5" cy="19.5" r="3" stroke="white" stroke-opacity="0.45"/>
<path d="M38.2197 29.1193C38.2856 28.9979 38.2406 28.8462 38.1193 28.7803L36.1419 27.7068C36.0205 27.641 35.8687 27.6859 35.8029 27.8073C35.737 27.9286 35.782 28.0804 35.9033 28.1463L37.661 29.1004L36.7068 30.8581C36.641 30.9795 36.6859 31.1313 36.8073 31.1971C36.9286 31.263 37.0804 31.218 37.1463 31.0967L38.2197 29.1193ZM11.071 37.2397L38.071 29.2397L37.929 28.7603L10.929 36.7603L11.071 37.2397Z" fill="white" fill-opacity="0.45"/>
<path d="M38.1268 11.2155C38.2458 11.1455 38.2855 10.9923 38.2155 10.8732L37.0747 8.93389C37.0047 8.81488 36.8515 8.77516 36.7324 8.84516C36.6134 8.91517 36.5737 9.06839 36.6437 9.1874L37.6578 10.9113L35.9339 11.9253C35.8149 11.9953 35.7752 12.1485 35.8452 12.2675C35.9152 12.3866 36.0684 12.4263 36.1874 12.3563L38.1268 11.2155ZM10.9373 4.242L37.9373 11.242L38.0627 10.758L11.0627 3.758L10.9373 4.242Z" fill="white" fill-opacity="0.45"/>
<path d="M38.1768 20.1768C38.2744 20.0791 38.2744 19.9209 38.1768 19.8232L36.5858 18.2322C36.4882 18.1346 36.3299 18.1346 36.2322 18.2322C36.1346 18.3299 36.1346 18.4882 36.2322 18.5858L37.6464 20L36.2322 21.4142C36.1346 21.5118 36.1346 21.6701 36.2322 21.7678C36.3299 21.8654 36.4882 21.8654 36.5858 21.7678L38.1768 20.1768ZM7 20.25L38 20.25V19.75L7 19.75V20.25Z" fill="white" fill-opacity="0.45"/>
<path d="M39.8785 10.0691L40.5802 11.2357L41.2908 10.0691H41.9333L40.8852 11.6502L41.9659 13.2727H41.3322L40.592 12.0706L39.8518 13.2727H39.2152L40.293 11.6502L39.2478 10.0691H39.8785ZM43.5647 12.0232V14.3594H43.1028V12.5799L42.4633 12.7487V12.3667L43.5114 12.0232H43.5647Z" fill="white"/>
<path d="M39.8785 18.1542L40.5802 19.3207L41.2908 18.1542H41.9333L40.8852 19.7353L41.9659 21.3578H41.3322L40.592 20.1557L39.8518 21.3578H39.2152L40.293 19.7353L39.2478 18.1542H39.8785ZM44.1214 22.0655V22.4444H42.3508V22.1247L43.2035 21.3223C43.2923 21.2394 43.3624 21.1654 43.4137 21.1002C43.465 21.0351 43.5016 20.9769 43.5233 20.9255C43.547 20.8722 43.5588 20.8239 43.5588 20.7804C43.5588 20.6857 43.5272 20.6077 43.4641 20.5465C43.4009 20.4854 43.3111 20.4548 43.1946 20.4548C43.0466 20.4548 42.937 20.4923 42.866 20.5673C42.7969 20.6423 42.7623 20.736 42.7623 20.8485H42.2945C42.2945 20.7064 42.3301 20.5771 42.4011 20.4607C42.4722 20.3442 42.5738 20.2514 42.7061 20.1824C42.8383 20.1113 42.9972 20.0758 43.1828 20.0758C43.3604 20.0758 43.5124 20.1044 43.6388 20.1616C43.7651 20.2189 43.8618 20.2998 43.9289 20.4044C43.996 20.5071 44.0296 20.6304 44.0296 20.7745C44.0296 20.8791 44.0059 20.9769 43.9585 21.0677C43.9131 21.1585 43.848 21.2493 43.7631 21.3401C43.6782 21.4309 43.5776 21.5286 43.4611 21.6332L42.943 22.0655H44.1214Z" fill="white"/>
<path d="M39.8785 26.2393L40.5802 27.4059L41.2908 26.2393H41.9333L40.8852 27.8204L41.9659 29.4429H41.3322L40.592 28.2408L39.8518 29.4429H39.2152L40.293 27.8204L39.2478 26.2393H39.8785ZM42.8867 29.1705H43.1354C43.2321 29.1705 43.3121 29.1567 43.3752 29.1291C43.4384 29.1015 43.4858 29.064 43.5174 29.0166C43.5509 28.9672 43.5677 28.911 43.5677 28.8478C43.5677 28.761 43.5361 28.6879 43.4729 28.6287C43.4098 28.5695 43.3101 28.5399 43.1739 28.5399C43.0614 28.5399 42.9676 28.5646 42.8926 28.6139C42.8196 28.6633 42.7831 28.7304 42.7831 28.8152H42.3182C42.3182 28.681 42.3557 28.5655 42.4307 28.4688C42.5057 28.3701 42.6074 28.2941 42.7357 28.2408C42.864 28.1875 43.0071 28.1609 43.165 28.1609C43.3367 28.1609 43.4877 28.1866 43.618 28.2379C43.7483 28.2872 43.85 28.3612 43.923 28.4599C43.996 28.5586 44.0325 28.68 44.0325 28.8241C44.0325 28.9287 44 29.0255 43.9348 29.1143C43.8717 29.2011 43.7789 29.2712 43.6565 29.3245C43.5361 29.3758 43.3891 29.4015 43.2153 29.4015H42.8867V29.1705ZM42.8867 29.511V29.2801H43.2153C43.4127 29.2801 43.5746 29.3038 43.7009 29.3512C43.8273 29.3985 43.921 29.4666 43.9822 29.5555C44.0434 29.6443 44.074 29.7519 44.074 29.8782C44.074 30.0223 44.0345 30.1457 43.9556 30.2483C43.8766 30.3509 43.768 30.4289 43.6299 30.4822C43.4937 30.5355 43.3397 30.5621 43.168 30.5621C43.0199 30.5621 42.8778 30.5375 42.7416 30.4881C42.6074 30.4408 42.4978 30.3657 42.413 30.2631C42.3281 30.1605 42.2856 30.0292 42.2856 29.8693H42.7505C42.7505 29.9581 42.79 30.0322 42.8689 30.0914C42.9479 30.1526 43.0525 30.1832 43.1828 30.1832C43.321 30.1832 43.4256 30.1526 43.4966 30.0914C43.5697 30.0302 43.6062 29.9512 43.6062 29.8545C43.6062 29.7716 43.5864 29.7045 43.547 29.6532C43.5095 29.6038 43.4552 29.5673 43.3841 29.5436C43.315 29.5219 43.2321 29.511 43.1354 29.511H42.8867Z" fill="white"/>
<path d="M37.8182 6H35.2727C34.5698 6 34 6.56982 34 7.27273V32.7273C34 33.4302 34.5698 34 35.2727 34H37.8182" stroke="#B9B9B9" stroke-width="0.354545" stroke-linecap="round"/>
<path d="M44.1818 34H46.7273C47.4302 34 48 33.4302 48 32.7273L48 7.27273C48 6.56982 47.4302 6 46.7273 6H44.1818" stroke="#B9B9B9" stroke-width="0.354545" stroke-linecap="round"/>
</svg>
