<svg width="87" height="42" viewBox="0 0 87 42" fill="#676767" xmlns="http://www.w3.org/2000/svg">
<path d="M8.69598 20.2887H20.4909L16.8102 9.74859C16.5871 9.10726 16.2247 8.08949 15.7227 6.69529C15.2487 5.27321 14.9141 4.28333 14.7189 3.72565H14.468C13.2968 7.15538 12.6137 9.16302 12.4185 9.74859L8.69598 20.2887ZM0.832696 32L12.544 0.672352H16.6429L28.3542 32H24.6735L21.4947 22.9656H7.69215L4.51338 32H0.832696ZM28.8026 9.49763H32.3996L37.2514 23.593C37.4745 24.2901 37.7812 25.266 38.1716 26.5208C38.5619 27.7756 38.8408 28.6679 39.0081 29.1977H39.0917C39.2869 28.5563 39.5937 27.6222 40.0119 26.3953C40.4302 25.1684 40.7369 24.2343 40.9321 23.593L45.7002 9.49763H49.2973L41.0157 32H37.0841L28.8026 9.49763ZM55.6013 20.3306C55.6013 22.9795 56.1869 25.1266 57.358 26.7718C58.5291 28.389 60.0627 29.1977 61.9588 29.1977C63.8828 29.1977 65.4025 28.4169 66.5179 26.8554C67.6611 25.2939 68.2327 23.105 68.2327 20.2887C68.2327 17.5561 67.6472 15.409 66.476 13.8475C65.3328 12.2581 63.8549 11.4635 62.0425 11.4635C60.0906 11.4635 58.5291 12.3 57.358 13.973C56.1869 15.6182 55.6013 17.7373 55.6013 20.3306ZM52.3389 20.3724C52.3389 16.8869 53.2033 14.0845 54.9321 11.9654C56.6609 9.8183 58.8916 8.74476 61.6242 8.74476C63.353 8.74476 64.7612 9.19091 65.8486 10.0832C66.964 10.9755 67.7587 12.0072 68.2327 13.1783V9.49763H71.4115V29.365C71.4115 33.6312 70.6447 36.796 69.1111 38.8595C67.6053 40.9508 65.1934 41.9964 61.8752 41.9964C58.2781 41.9964 55.4898 40.6301 53.51 37.8975L55.7686 36.4336C57.4974 38.3854 59.5608 39.3614 61.9588 39.3614C63.9386 39.3614 65.4722 38.5806 66.5597 37.0191C67.675 35.4855 68.2327 33.4221 68.2327 30.8289V27.6083C67.6472 28.8631 66.7967 29.8948 65.6813 30.7034C64.5939 31.512 63.2694 31.9163 61.7079 31.9163C58.8637 31.9163 56.5912 30.8428 54.8902 28.6957C53.1893 26.5208 52.3389 23.7463 52.3389 20.3724ZM80.8943 32V27.0227H86.1644V32H80.8943Z" fill="white" fill-opacity="0.26"/>
</svg>
