<svg width="300" height="300" viewBox="0 0 64 78" fill="none" xmlns="http://www.w3.org/2000/svg">
<path d="M25.0352 27.7394L25.7355 25.4829H26.1961L25.1865 28.3885C25.1632 28.4505 25.1322 28.5172 25.0934 28.5886C25.0562 28.6615 25.0081 28.7305 24.9492 28.7956C24.8902 28.8608 24.8189 28.9135 24.7351 28.9538C24.6529 28.9957 24.5545 29.0166 24.4397 29.0166C24.4056 29.0166 24.3621 29.012 24.3094 29.0027C24.2567 28.9934 24.2195 28.9856 24.1977 28.9794L24.1954 28.6305C24.2078 28.632 24.2272 28.6336 24.2536 28.6351C24.2815 28.6382 24.3009 28.6398 24.3117 28.6398C24.4094 28.6398 24.4924 28.6266 24.5607 28.6002C24.6289 28.5754 24.6863 28.5327 24.7328 28.4723C24.7809 28.4133 24.822 28.3319 24.8561 28.228L25.0352 27.7394ZM24.5211 25.4829L25.1748 27.437L25.2865 27.8907L24.9771 28.0489L24.0512 25.4829H24.5211ZM27.4082 27.0183V28.8538H27.0452V27.4556L26.5427 27.5882V27.2881L27.3663 27.0183H27.4082Z" fill="white"/>
<path d="M25.0352 34.092L25.7355 31.8354H26.1961L25.1865 34.7411C25.1632 34.8031 25.1322 34.8698 25.0934 34.9411C25.0562 35.014 25.0081 35.0831 24.9492 35.1482C24.8902 35.2133 24.8189 35.2661 24.7351 35.3064C24.6529 35.3483 24.5545 35.3692 24.4397 35.3692C24.4056 35.3692 24.3621 35.3645 24.3094 35.3552C24.2567 35.3459 24.2195 35.3382 24.1977 35.332L24.1954 34.983C24.2078 34.9846 24.2272 34.9861 24.2536 34.9877C24.2815 34.9908 24.3009 34.9923 24.3117 34.9923C24.4094 34.9923 24.4924 34.9791 24.5607 34.9528C24.6289 34.928 24.6863 34.8853 24.7328 34.8248C24.7809 34.7659 24.822 34.6845 24.8561 34.5806L25.0352 34.092ZM24.5211 31.8354L25.1748 33.7896L25.2865 34.2432L24.9771 34.4014L24.0512 31.8354H24.5211ZM27.8455 34.9086V35.2064H26.4543V34.9551L27.1243 34.3247C27.1941 34.2595 27.2492 34.2014 27.2895 34.1502C27.3298 34.099 27.3585 34.0532 27.3756 34.0129C27.3942 33.971 27.4035 33.933 27.4035 33.8989C27.4035 33.8245 27.3787 33.7632 27.3291 33.7151C27.2794 33.6671 27.2089 33.643 27.1174 33.643C27.001 33.643 26.915 33.6725 26.8591 33.7314C26.8048 33.7904 26.7777 33.864 26.7777 33.9524H26.4101C26.4101 33.8408 26.4381 33.7392 26.4939 33.6477C26.5497 33.5562 26.6296 33.4833 26.7335 33.429C26.8374 33.3732 26.9623 33.3452 27.108 33.3452C27.2476 33.3452 27.3671 33.3677 27.4663 33.4127C27.5656 33.4577 27.6416 33.5213 27.6943 33.6035C27.747 33.6841 27.7734 33.7811 27.7734 33.8943C27.7734 33.9765 27.7548 34.0532 27.7176 34.1246C27.6819 34.1959 27.6307 34.2673 27.564 34.3386C27.4973 34.41 27.4182 34.4867 27.3267 34.5689L26.9196 34.9086H27.8455Z" fill="white"/>
<path d="M25.0352 40.4446L25.7355 38.188H26.1961L25.1865 41.0937C25.1632 41.1557 25.1322 41.2224 25.0934 41.2937C25.0562 41.3666 25.0081 41.4357 24.9492 41.5008C24.8902 41.5659 24.8189 41.6187 24.7351 41.659C24.6529 41.7009 24.5545 41.7218 24.4397 41.7218C24.4056 41.7218 24.3621 41.7171 24.3094 41.7078C24.2567 41.6985 24.2195 41.6908 24.1977 41.6846L24.1954 41.3356C24.2078 41.3372 24.2272 41.3387 24.2536 41.3403C24.2815 41.3434 24.3009 41.3449 24.3117 41.3449C24.4094 41.3449 24.4924 41.3317 24.5607 41.3054C24.6289 41.2806 24.6863 41.2379 24.7328 41.1774C24.7809 41.1185 24.822 41.0371 24.8561 40.9332L25.0352 40.4446ZM24.5211 38.188L25.1748 40.1422L25.2865 40.5958L24.9771 40.754L24.0512 38.188H24.5211ZM26.8754 40.4911H27.0708C27.1468 40.4911 27.2096 40.4803 27.2593 40.4586C27.3089 40.4369 27.3461 40.4074 27.3709 40.3702C27.3973 40.3314 27.4105 40.2872 27.4105 40.2376C27.4105 40.1693 27.3857 40.1119 27.336 40.0654C27.2864 40.0189 27.2081 39.9956 27.1011 39.9956C27.0127 39.9956 26.939 40.015 26.8801 40.0538C26.8227 40.0926 26.794 40.1453 26.794 40.212H26.4287C26.4287 40.1065 26.4582 40.0158 26.5171 39.9398C26.5761 39.8622 26.656 39.8025 26.7568 39.7607C26.8576 39.7188 26.97 39.6978 27.0941 39.6978C27.229 39.6978 27.3477 39.718 27.45 39.7583C27.5524 39.7971 27.6323 39.8553 27.6896 39.9328C27.747 40.0104 27.7757 40.1057 27.7757 40.219C27.7757 40.3012 27.7501 40.3771 27.699 40.4469C27.6493 40.5152 27.5764 40.5702 27.4803 40.6121C27.3857 40.6524 27.2701 40.6726 27.1336 40.6726H26.8754V40.4911ZM26.8754 40.7587V40.5772H27.1336C27.2887 40.5772 27.4159 40.5958 27.5152 40.6331C27.6144 40.6703 27.6881 40.7238 27.7362 40.7936C27.7843 40.8634 27.8083 40.9479 27.8083 41.0471C27.8083 41.1604 27.7773 41.2573 27.7152 41.3379C27.6532 41.4186 27.5679 41.4799 27.4593 41.5217C27.3523 41.5636 27.2313 41.5845 27.0964 41.5845C26.9801 41.5845 26.8684 41.5652 26.7614 41.5264C26.656 41.4892 26.5699 41.4302 26.5032 41.3496C26.4365 41.2689 26.4032 41.1658 26.4032 41.0402H26.7684C26.7684 41.11 26.7994 41.1681 26.8615 41.2146C26.9235 41.2627 27.0057 41.2868 27.108 41.2868C27.2166 41.2868 27.2988 41.2627 27.3546 41.2146C27.412 41.1666 27.4407 41.1045 27.4407 41.0285C27.4407 40.9634 27.4252 40.9107 27.3942 40.8703C27.3647 40.8316 27.3221 40.8029 27.2662 40.7843C27.212 40.7672 27.1468 40.7587 27.0708 40.7587H26.8754Z" fill="white"/>
<path d="M25.5406 52.6444L26.2408 50.3878H26.7014L25.6918 53.2935C25.6685 53.3555 25.6375 53.4222 25.5987 53.4935C25.5615 53.5664 25.5134 53.6355 25.4545 53.7006C25.3955 53.7657 25.3242 53.8185 25.2404 53.8588C25.1582 53.9007 25.0598 53.9216 24.945 53.9216C24.9109 53.9216 24.8675 53.9169 24.8147 53.9076C24.762 53.8983 24.7248 53.8906 24.7031 53.8844L24.7007 53.5354C24.7131 53.537 24.7325 53.5385 24.7589 53.5401C24.7868 53.5432 24.8062 53.5447 24.817 53.5447C24.9148 53.5447 24.9977 53.5315 25.066 53.5052C25.1342 53.4804 25.1916 53.4377 25.2381 53.3772C25.2862 53.3183 25.3273 53.2369 25.3614 53.133L25.5406 52.6444ZM25.0264 50.3878L25.6801 52.342L25.7918 52.7956L25.4824 52.9538L24.5565 50.3878H25.0264ZM27.2686 52.7171V53.905H26.9322V52.3947H27.249L27.2686 52.7171ZM27.2086 53.094L27.0997 53.0926C27.1006 52.9856 27.1155 52.8874 27.1444 52.7981C27.1741 52.7087 27.2151 52.632 27.2672 52.5678C27.3202 52.5036 27.3835 52.4542 27.457 52.4198C27.5305 52.3844 27.6124 52.3668 27.7027 52.3668C27.7753 52.3668 27.8409 52.377 27.8995 52.3975C27.9591 52.417 28.0098 52.4491 28.0516 52.4938C28.0945 52.5385 28.127 52.5966 28.1494 52.6683C28.1717 52.739 28.1829 52.826 28.1829 52.9293V53.905H27.8451V52.9279C27.8451 52.8553 27.8344 52.7981 27.813 52.7562C27.7925 52.7134 27.7622 52.6832 27.7222 52.6655C27.6832 52.6469 27.6343 52.6376 27.5757 52.6376C27.518 52.6376 27.4663 52.6497 27.4207 52.6738C27.3751 52.698 27.3365 52.7311 27.3049 52.7729C27.2742 52.8148 27.2504 52.8632 27.2337 52.9181C27.2169 52.973 27.2086 53.0316 27.2086 53.094Z" fill="white"/>
<circle cx="25.7686" cy="43.1045" r="0.397036" transform="rotate(90 25.7686 43.1045)" fill="#D9D9D9"/>
<circle cx="25.7686" cy="45.4867" r="0.397036" transform="rotate(90 25.7686 45.4867)" fill="#D9D9D9"/>
<circle cx="25.7686" cy="47.8689" r="0.397036" transform="rotate(90 25.7686 47.8689)" fill="#D9D9D9"/>
<path d="M8.61882 25.4829L9.17017 26.3994L9.7285 25.4829H10.2333L9.40979 26.7251L10.2589 28H9.76107L9.17948 27.0555L8.59788 28H8.09771L8.94451 26.7251L8.1233 25.4829H8.61882ZM11.5152 27.0183V28.8538H11.1523V27.4556L10.6498 27.5882V27.2881L11.4733 27.0183H11.5152Z" fill="white"/>
<path d="M8.61882 31.8354L9.17017 32.752L9.7285 31.8354H10.2333L9.40979 33.0777L10.2589 34.3526H9.76107L9.17948 33.4081L8.59788 34.3526H8.09771L8.94451 33.0777L8.1233 31.8354H8.61882ZM11.9525 34.9086V35.2064H10.5613V34.9551L11.2313 34.3247C11.3011 34.2595 11.3562 34.2014 11.3965 34.1502C11.4368 34.099 11.4655 34.0532 11.4826 34.0129C11.5012 33.971 11.5105 33.933 11.5105 33.8989C11.5105 33.8245 11.4857 33.7632 11.4361 33.7151C11.3864 33.6671 11.3159 33.643 11.2244 33.643C11.108 33.643 11.022 33.6725 10.9661 33.7314C10.9119 33.7904 10.8847 33.864 10.8847 33.9524H10.5171C10.5171 33.8408 10.5451 33.7392 10.6009 33.6477C10.6567 33.5562 10.7366 33.4833 10.8405 33.429C10.9444 33.3732 11.0693 33.3452 11.2151 33.3452C11.3546 33.3452 11.4741 33.3677 11.5733 33.4127C11.6726 33.4577 11.7486 33.5213 11.8013 33.6035C11.854 33.6841 11.8804 33.7811 11.8804 33.8943C11.8804 33.9765 11.8618 34.0532 11.8246 34.1246C11.7889 34.1959 11.7377 34.2673 11.671 34.3386C11.6043 34.41 11.5252 34.4867 11.4337 34.5689L11.0266 34.9086H11.9525Z" fill="white"/>
<path d="M8.61882 38.188L9.17017 39.1046L9.7285 38.188H10.2333L9.40979 39.4303L10.2589 40.7052H9.76107L9.17948 39.7607L8.59788 40.7052H8.09771L8.94451 39.4303L8.1233 38.188H8.61882ZM10.9824 40.4911H11.1778C11.2538 40.4911 11.3166 40.4803 11.3663 40.4586C11.4159 40.4369 11.4531 40.4074 11.4779 40.3702C11.5043 40.3314 11.5175 40.2872 11.5175 40.2376C11.5175 40.1693 11.4927 40.1119 11.443 40.0654C11.3934 40.0189 11.3151 39.9956 11.2081 39.9956C11.1197 39.9956 11.046 40.015 10.9871 40.0538C10.9297 40.0926 10.901 40.1453 10.901 40.212H10.5358C10.5358 40.1065 10.5652 40.0158 10.6242 39.9398C10.6831 39.8622 10.763 39.8025 10.8638 39.7607C10.9646 39.7188 11.077 39.6978 11.2011 39.6978C11.336 39.6978 11.4547 39.718 11.557 39.7583C11.6594 39.7971 11.7393 39.8553 11.7967 39.9328C11.854 40.0104 11.8827 40.1057 11.8827 40.219C11.8827 40.3012 11.8571 40.3771 11.806 40.4469C11.7563 40.5152 11.6834 40.5702 11.5873 40.6121C11.4927 40.6524 11.3771 40.6726 11.2407 40.6726H10.9824V40.4911ZM10.9824 40.7587V40.5772H11.2407C11.3957 40.5772 11.5229 40.5958 11.6222 40.6331C11.7214 40.6703 11.7951 40.7238 11.8432 40.7936C11.8913 40.8634 11.9153 40.9479 11.9153 41.0471C11.9153 41.1604 11.8843 41.2573 11.8222 41.3379C11.7602 41.4186 11.6749 41.4799 11.5663 41.5217C11.4593 41.5636 11.3384 41.5845 11.2034 41.5845C11.0871 41.5845 10.9754 41.5652 10.8684 41.5264C10.763 41.4892 10.6769 41.4302 10.6102 41.3496C10.5435 41.2689 10.5102 41.1658 10.5102 41.0402H10.8754C10.8754 41.11 10.9064 41.1681 10.9685 41.2146C11.0305 41.2627 11.1127 41.2868 11.2151 41.2868C11.3236 41.2868 11.4058 41.2627 11.4617 41.2146C11.519 41.1666 11.5477 41.1045 11.5477 41.0285C11.5477 40.9634 11.5322 40.9107 11.5012 40.8703C11.4717 40.8316 11.4291 40.8029 11.3733 40.7843C11.319 40.7672 11.2538 40.7587 11.1778 40.7587H10.9824Z" fill="white"/>
<path d="M9.12413 50.3878L9.67548 51.3044L10.2338 50.3878H10.7386L9.9151 51.6301L10.7642 52.905H10.2664L9.68479 51.9605L9.10319 52.905H8.60302L9.44982 51.6301L8.62861 50.3878H9.12413ZM11.3756 52.7171V53.905H11.0392V52.3947H11.3561L11.3756 52.7171ZM11.3156 53.094L11.2067 53.0926C11.2076 52.9856 11.2225 52.8874 11.2514 52.7981C11.2812 52.7087 11.3221 52.632 11.3742 52.5678C11.4272 52.5036 11.4905 52.4542 11.564 52.4198C11.6376 52.3844 11.7194 52.3668 11.8097 52.3668C11.8823 52.3668 11.9479 52.377 12.0065 52.3975C12.0661 52.417 12.1168 52.4491 12.1587 52.4938C12.2015 52.5385 12.234 52.5966 12.2564 52.6683C12.2787 52.739 12.2899 52.826 12.2899 52.9293V53.905H11.9521V52.9279C11.9521 52.8553 11.9414 52.7981 11.92 52.7562C11.8995 52.7134 11.8693 52.6832 11.8292 52.6655C11.7902 52.6469 11.7413 52.6376 11.6827 52.6376C11.625 52.6376 11.5733 52.6497 11.5277 52.6738C11.4822 52.698 11.4435 52.7311 11.4119 52.7729C11.3812 52.8148 11.3575 52.8632 11.3407 52.9181C11.324 52.973 11.3156 53.0316 11.3156 53.094Z" fill="white"/>
<circle cx="9.76861" cy="43.1045" r="0.397036" transform="rotate(90 9.76861 43.1045)" fill="#D9D9D9"/>
<circle cx="9.76861" cy="45.4867" r="0.397036" transform="rotate(90 9.76861 45.4867)" fill="#D9D9D9"/>
<circle cx="9.76861" cy="47.8689" r="0.397036" transform="rotate(90 9.76861 47.8689)" fill="#D9D9D9"/>
<path d="M4 19H2C1.44772 19 1 19.4477 1 20V60C1 60.5523 1.44772 61 2 61H4" stroke="#B9B9B9" stroke-width="0.3" stroke-linecap="round"/>
<path d="M55 1H53C52.4477 1 52 1.44772 52 2V76C52 76.5523 52.4477 77 53 77H55" stroke="#B9B9B9" stroke-width="0.3" stroke-linecap="round"/>
<path d="M7 22H5C4.44772 22 4 22.4477 4 23V57C4 57.5523 4.44772 58 5 58H7" stroke="#B9B9B9" stroke-width="0.278571" stroke-linecap="round"/>
<path d="M23 22H21C20.4477 22 20 22.4477 20 23V57C20 57.5523 20.4477 58 21 58H23" stroke="#B9B9B9" stroke-width="0.278571" stroke-linecap="round"/>
<path d="M12 58H14C14.5523 58 15 57.5523 15 57L15 23C15 22.4477 14.5523 22 14 22H12" stroke="#B9B9B9" stroke-width="0.278571" stroke-linecap="round"/>
<path d="M28 58H30C30.5523 58 31 57.5523 31 57L31 23C31 22.4477 30.5523 22 30 22H28" stroke="#B9B9B9" stroke-width="0.278571" stroke-linecap="round"/>
<path d="M31 61H33C33.5523 61 34 60.5523 34 60L34 20C34 19.4477 33.5523 19 33 19H31" stroke="#B9B9B9" stroke-width="0.3" stroke-linecap="round"/>
<path d="M60 77H62C62.5523 77 63 76.5523 63 76L63 2C63 1.44772 62.5523 1 62 1H60" stroke="#B9B9B9" stroke-width="0.3" stroke-linecap="round"/>
<path d="M55.6188 5.48285L56.1702 6.39945L56.7285 5.48285H57.2333L56.4098 6.72514L57.2589 8H56.7611L56.1795 7.05549L55.5979 8H55.0977L55.9445 6.72514L55.1233 5.48285H55.6188ZM58.5152 7.01827V8.85378H58.1523V7.45563L57.6498 7.58823V7.28813L58.4733 7.01827H58.5152Z" fill="white"/>
<path d="M56.0352 15.7394L56.7355 13.4829H57.1961L56.1865 16.3885C56.1632 16.4505 56.1322 16.5172 56.0934 16.5886C56.0562 16.6615 56.0081 16.7305 55.9492 16.7956C55.8902 16.8608 55.8189 16.9135 55.7351 16.9538C55.6529 16.9957 55.5545 17.0166 55.4397 17.0166C55.4056 17.0166 55.3621 17.012 55.3094 17.0027C55.2567 16.9934 55.2195 16.9856 55.1977 16.9794L55.1954 16.6305C55.2078 16.632 55.2272 16.6336 55.2536 16.6351C55.2815 16.6382 55.3009 16.6398 55.3117 16.6398C55.4094 16.6398 55.4924 16.6266 55.5607 16.6002C55.6289 16.5754 55.6863 16.5327 55.7328 16.4723C55.7809 16.4133 55.822 16.3319 55.8561 16.228L56.0352 15.7394ZM55.5211 13.4829L56.1748 15.437L56.2865 15.8907L55.9771 16.0489L55.0512 13.4829H55.5211ZM58.4082 15.0183V16.8538H58.0452V15.4556L57.5427 15.5882V15.2881L58.3663 15.0183H58.4082Z" fill="white"/>
<path d="M55.6188 21.4829L56.1702 22.3994L56.7285 21.4829H57.2333L56.4098 22.7251L57.2589 24H56.7611L56.1795 23.0555L55.5979 24H55.0977L55.9445 22.7251L55.1233 21.4829H55.6188ZM58.9525 24.556V24.8538H57.5613V24.6025L58.2313 23.9721C58.3011 23.9069 58.3562 23.8488 58.3965 23.7976C58.4368 23.7464 58.4655 23.7007 58.4826 23.6603C58.5012 23.6185 58.5105 23.5805 58.5105 23.5464C58.5105 23.4719 58.4857 23.4106 58.4361 23.3626C58.3864 23.3145 58.3159 23.2905 58.2244 23.2905C58.108 23.2905 58.022 23.3199 57.9661 23.3789C57.9119 23.4378 57.8847 23.5115 57.8847 23.5999H57.5171C57.5171 23.4882 57.5451 23.3866 57.6009 23.2951C57.6567 23.2036 57.7366 23.1307 57.8405 23.0764C57.9444 23.0206 58.0693 22.9927 58.2151 22.9927C58.3546 22.9927 58.4741 23.0152 58.5733 23.0601C58.6726 23.1051 58.7486 23.1687 58.8013 23.2509C58.854 23.3316 58.8804 23.4285 58.8804 23.5417C58.8804 23.6239 58.8618 23.7007 58.8246 23.772C58.7889 23.8434 58.7377 23.9147 58.671 23.986C58.6043 24.0574 58.5252 24.1342 58.4337 24.2164L58.0266 24.556H58.9525Z" fill="white"/>
<path d="M56.0352 31.7394L56.7355 29.4829H57.1961L56.1865 32.3885C56.1632 32.4505 56.1322 32.5172 56.0934 32.5886C56.0562 32.6615 56.0081 32.7305 55.9492 32.7956C55.8902 32.8608 55.8189 32.9135 55.7351 32.9538C55.6529 32.9957 55.5545 33.0166 55.4397 33.0166C55.4056 33.0166 55.3621 33.012 55.3094 33.0027C55.2567 32.9934 55.2195 32.9856 55.1977 32.9794L55.1954 32.6305C55.2078 32.632 55.2272 32.6336 55.2536 32.6351C55.2815 32.6382 55.3009 32.6398 55.3117 32.6398C55.4094 32.6398 55.4924 32.6266 55.5607 32.6002C55.6289 32.5754 55.6863 32.5327 55.7328 32.4723C55.7809 32.4133 55.822 32.3319 55.8561 32.228L56.0352 31.7394ZM55.5211 29.4829L56.1748 31.437L56.2865 31.8907L55.9771 32.0489L55.0512 29.4829H55.5211ZM58.8455 32.556V32.8538H57.4543V32.6025L58.1243 31.9721C58.1941 31.9069 58.2492 31.8488 58.2895 31.7976C58.3298 31.7464 58.3585 31.7007 58.3756 31.6603C58.3942 31.6185 58.4035 31.5805 58.4035 31.5464C58.4035 31.4719 58.3787 31.4106 58.3291 31.3626C58.2794 31.3145 58.2089 31.2905 58.1174 31.2905C58.001 31.2905 57.915 31.3199 57.8591 31.3789C57.8048 31.4378 57.7777 31.5115 57.7777 31.5999H57.4101C57.4101 31.4882 57.4381 31.3866 57.4939 31.2951C57.5497 31.2036 57.6296 31.1307 57.7335 31.0764C57.8374 31.0206 57.9623 30.9927 58.108 30.9927C58.2476 30.9927 58.3671 31.0152 58.4663 31.0601C58.5656 31.1051 58.6416 31.1687 58.6943 31.2509C58.747 31.3316 58.7734 31.4285 58.7734 31.5417C58.7734 31.6239 58.7548 31.7007 58.7176 31.772C58.6819 31.8434 58.6307 31.9147 58.564 31.986C58.4973 32.0574 58.4182 32.1342 58.3267 32.2164L57.9196 32.556H58.8455Z" fill="white"/>
<path d="M55.6188 37.4829L56.1702 38.3994L56.7285 37.4829H57.2333L56.4098 38.7251L57.2589 40H56.7611L56.1795 39.0555L55.5979 40H55.0977L55.9445 38.7251L55.1233 37.4829H55.6188ZM57.9824 39.786H58.1778C58.2538 39.786 58.3166 39.7751 58.3663 39.7534C58.4159 39.7317 58.4531 39.7022 58.4779 39.665C58.5043 39.6262 58.5175 39.582 58.5175 39.5324C58.5175 39.4642 58.4927 39.4068 58.443 39.3602C58.3934 39.3137 58.3151 39.2905 58.2081 39.2905C58.1197 39.2905 58.046 39.3098 57.9871 39.3486C57.9297 39.3874 57.901 39.4401 57.901 39.5068H57.5358C57.5358 39.4013 57.5652 39.3106 57.6242 39.2346C57.6831 39.1571 57.763 39.0974 57.8638 39.0555C57.9646 39.0136 58.077 38.9927 58.2011 38.9927C58.336 38.9927 58.4547 39.0128 58.557 39.0532C58.6594 39.0919 58.7393 39.1501 58.7967 39.2276C58.854 39.3052 58.8827 39.4006 58.8827 39.5138C58.8827 39.596 58.8571 39.672 58.806 39.7418C58.7563 39.81 58.6834 39.8651 58.5873 39.9069C58.4927 39.9473 58.3771 39.9674 58.2407 39.9674H57.9824V39.786ZM57.9824 40.0535V39.872H58.2407C58.3957 39.872 58.5229 39.8907 58.6222 39.9279C58.7214 39.9651 58.7951 40.0186 58.8432 40.0884C58.8913 40.1582 58.9153 40.2427 58.9153 40.342C58.9153 40.4552 58.8843 40.5521 58.8222 40.6328C58.7602 40.7134 58.6749 40.7747 58.5663 40.8166C58.4593 40.8584 58.3384 40.8794 58.2034 40.8794C58.0871 40.8794 57.9754 40.86 57.8684 40.8212C57.763 40.784 57.6769 40.7251 57.6102 40.6444C57.5435 40.5638 57.5102 40.4606 57.5102 40.335H57.8754C57.8754 40.4048 57.9064 40.463 57.9685 40.5095C58.0305 40.5576 58.1127 40.5816 58.2151 40.5816C58.3236 40.5816 58.4058 40.5576 58.4617 40.5095C58.519 40.4614 58.5477 40.3994 58.5477 40.3234C58.5477 40.2582 58.5322 40.2055 58.5012 40.1652C58.4717 40.1264 58.4291 40.0977 58.3733 40.0791C58.319 40.062 58.2538 40.0535 58.1778 40.0535H57.9824Z" fill="white"/>
<path d="M56.0352 47.7394L56.7355 45.4829H57.1961L56.1865 48.3885C56.1632 48.4505 56.1322 48.5172 56.0934 48.5886C56.0562 48.6615 56.0081 48.7305 55.9492 48.7956C55.8902 48.8608 55.8189 48.9135 55.7351 48.9538C55.6529 48.9957 55.5545 49.0166 55.4397 49.0166C55.4056 49.0166 55.3621 49.012 55.3094 49.0027C55.2567 48.9934 55.2195 48.9856 55.1977 48.9794L55.1954 48.6305C55.2078 48.632 55.2272 48.6336 55.2536 48.6351C55.2815 48.6382 55.3009 48.6398 55.3117 48.6398C55.4094 48.6398 55.4924 48.6266 55.5607 48.6002C55.6289 48.5754 55.6863 48.5327 55.7328 48.4723C55.7809 48.4133 55.822 48.3319 55.8561 48.228L56.0352 47.7394ZM55.5211 45.4829L56.1748 47.437L56.2865 47.8907L55.9771 48.0489L55.0512 45.4829H55.5211ZM57.8754 47.786H58.0708C58.1468 47.786 58.2096 47.7751 58.2593 47.7534C58.3089 47.7317 58.3461 47.7022 58.3709 47.665C58.3973 47.6262 58.4105 47.582 58.4105 47.5324C58.4105 47.4642 58.3857 47.4068 58.336 47.3602C58.2864 47.3137 58.2081 47.2905 58.1011 47.2905C58.0127 47.2905 57.939 47.3098 57.8801 47.3486C57.8227 47.3874 57.794 47.4401 57.794 47.5068H57.4287C57.4287 47.4013 57.4582 47.3106 57.5171 47.2346C57.5761 47.1571 57.656 47.0974 57.7568 47.0555C57.8576 47.0136 57.97 46.9927 58.0941 46.9927C58.229 46.9927 58.3477 47.0128 58.45 47.0532C58.5524 47.0919 58.6323 47.1501 58.6896 47.2276C58.747 47.3052 58.7757 47.4006 58.7757 47.5138C58.7757 47.596 58.7501 47.672 58.699 47.7418C58.6493 47.81 58.5764 47.8651 58.4803 47.9069C58.3857 47.9473 58.2701 47.9674 58.1336 47.9674H57.8754V47.786ZM57.8754 48.0535V47.872H58.1336C58.2887 47.872 58.4159 47.8907 58.5152 47.9279C58.6144 47.9651 58.6881 48.0186 58.7362 48.0884C58.7843 48.1582 58.8083 48.2427 58.8083 48.342C58.8083 48.4552 58.7773 48.5521 58.7152 48.6328C58.6532 48.7134 58.5679 48.7747 58.4593 48.8166C58.3523 48.8584 58.2313 48.8794 58.0964 48.8794C57.9801 48.8794 57.8684 48.86 57.7614 48.8212C57.656 48.784 57.5699 48.7251 57.5032 48.6444C57.4365 48.5638 57.4032 48.4606 57.4032 48.335H57.7684C57.7684 48.4048 57.7994 48.463 57.8615 48.5095C57.9235 48.5576 58.0057 48.5816 58.108 48.5816C58.2166 48.5816 58.2988 48.5576 58.3546 48.5095C58.412 48.4614 58.4407 48.3994 58.4407 48.3234C58.4407 48.2582 58.4252 48.2055 58.3942 48.1652C58.3647 48.1264 58.3221 48.0977 58.2662 48.0791C58.212 48.062 58.1468 48.0535 58.0708 48.0535H57.8754Z" fill="white"/>
<path d="M56.6188 62.4829L57.1702 63.3994L57.7285 62.4829H58.2333L57.4098 63.7251L58.2589 65H57.7611L57.1795 64.0555L56.5979 65H56.0977L56.9445 63.7251L56.1233 62.4829H56.6188ZM58.8703 64.8121V66H58.5339V64.4897H58.8508L58.8703 64.8121ZM58.8103 65.189L58.7014 65.1876C58.7023 65.0806 58.7172 64.9824 58.7461 64.8931C58.7758 64.8038 58.8168 64.727 58.8689 64.6628C58.9219 64.5986 58.9852 64.5493 59.0587 64.5148C59.1322 64.4795 59.2141 64.4618 59.3044 64.4618C59.377 64.4618 59.4426 64.472 59.5012 64.4925C59.5608 64.512 59.6115 64.5441 59.6534 64.5888C59.6962 64.6335 59.7287 64.6916 59.7511 64.7633C59.7734 64.834 59.7846 64.921 59.7846 65.0243V66H59.4468V65.0229C59.4468 64.9503 59.4361 64.8931 59.4147 64.8512C59.3942 64.8084 59.364 64.7782 59.3239 64.7605C59.2849 64.7419 59.236 64.7326 59.1774 64.7326C59.1197 64.7326 59.068 64.7447 59.0224 64.7689C58.9768 64.7931 58.9382 64.8261 58.9066 64.868C58.8759 64.9099 58.8521 64.9582 58.8354 65.0131C58.8186 65.0681 58.8103 65.1267 58.8103 65.189Z" fill="white"/>
<path d="M57.0352 72.7394L57.7355 70.4829H58.1961L57.1865 73.3885C57.1632 73.4505 57.1322 73.5172 57.0934 73.5886C57.0562 73.6615 57.0081 73.7305 56.9492 73.7956C56.8902 73.8608 56.8189 73.9135 56.7351 73.9538C56.6529 73.9957 56.5545 74.0166 56.4397 74.0166C56.4056 74.0166 56.3621 74.012 56.3094 74.0027C56.2567 73.9934 56.2195 73.9856 56.1977 73.9794L56.1954 73.6305C56.2078 73.632 56.2272 73.6336 56.2536 73.6351C56.2815 73.6382 56.3009 73.6398 56.3117 73.6398C56.4094 73.6398 56.4924 73.6266 56.5607 73.6002C56.6289 73.5754 56.6863 73.5327 56.7328 73.4723C56.7809 73.4133 56.822 73.3319 56.8561 73.228L57.0352 72.7394ZM56.5211 70.4829L57.1748 72.437L57.2865 72.8907L56.9771 73.0489L56.0512 70.4829H56.5211ZM58.7633 72.8121V74H58.4269V72.4897H58.7437L58.7633 72.8121ZM58.7033 73.189L58.5944 73.1876C58.5953 73.0806 58.6102 72.9824 58.6391 72.8931C58.6688 72.8038 58.7098 72.727 58.7619 72.6628C58.8149 72.5986 58.8782 72.5493 58.9517 72.5148C59.0252 72.4795 59.1071 72.4618 59.1974 72.4618C59.27 72.4618 59.3356 72.472 59.3942 72.4925C59.4537 72.512 59.5045 72.5441 59.5463 72.5888C59.5891 72.6335 59.6217 72.6916 59.644 72.7633C59.6664 72.834 59.6775 72.921 59.6775 73.0243V74H59.3398V73.0229C59.3398 72.9503 59.3291 72.8931 59.3077 72.8512C59.2872 72.8084 59.2569 72.7782 59.2169 72.7605C59.1778 72.7419 59.129 72.7326 59.0704 72.7326C59.0127 72.7326 58.961 72.7447 58.9154 72.7689C58.8698 72.7931 58.8312 72.8261 58.7996 72.868C58.7689 72.9099 58.7451 72.9582 58.7284 73.0131C58.7116 73.0681 58.7033 73.1267 58.7033 73.189Z" fill="white"/>
<circle cx="57.397" cy="53.397" r="0.397036" transform="rotate(90 57.397 53.397)" fill="#D9D9D9"/>
<circle cx="57.397" cy="55.7793" r="0.397036" transform="rotate(90 57.397 55.7793)" fill="#D9D9D9"/>
<circle cx="57.397" cy="58.1615" r="0.397036" transform="rotate(90 57.397 58.1615)" fill="#D9D9D9"/>
<path d="M48.3536 39.3536C48.5488 39.1583 48.5488 38.8417 48.3536 38.6464L45.1716 35.4645C44.9763 35.2692 44.6597 35.2692 44.4645 35.4645C44.2692 35.6597 44.2692 35.9763 44.4645 36.1716L47.2929 39L44.4645 41.8284C44.2692 42.0237 44.2692 42.3403 44.4645 42.5355C44.6597 42.7308 44.9763 42.7308 45.1716 42.5355L48.3536 39.3536ZM38 39.5H48V38.5H38V39.5Z" fill="white"/>
</svg>
