<svg width="300" height="300" viewBox="0 0 65 99" fill="none" xmlns="http://www.w3.org/2000/svg">
<path d="M1.18981 37.8373C1.09996 37.7325 0.942134 37.7203 0.837302 37.8102C0.732471 37.9 0.72033 38.0579 0.810186 38.1627L1.18981 37.8373ZM4 41.5H4.25V41.4075L4.18981 41.3373L4 41.5ZM4 46H3.75V46.25H4V46ZM8.5 46H8.75V45.75H8.5V46ZM8.5 52H8.25V52.25H8.5V52ZM13 52H13.25V51.75H13V52ZM13 56.5H12.75V56.6134L12.8354 56.6881L13 56.5ZM17 60L16.8354 60.1881L16.9061 60.25H17V60ZM19 60L19.2144 59.8714L19.1415 59.75H19V60ZM20.5 62.5H20.75V62.4308L20.7144 62.3714L20.5 62.5ZM20.5 64H20.25V64.1545L20.3882 64.2236L20.5 64ZM21.5 64.5L21.3882 64.7236L21.4041 64.7316L21.4209 64.7372L21.5 64.5ZM24.5 65.5H24.75V65.3198L24.5791 65.2628L24.5 65.5ZM24.5 67.5H24.25V67.75H24.5V67.5ZM26.5 67.5L26.708 67.3613L26.6338 67.25H26.5V67.5ZM27.5 69L27.292 69.1387L27.3979 69.2976L27.5791 69.2372L27.5 69ZM29 68.5L29.0791 68.2628L29 68.2365L28.9209 68.2628L29 68.5ZM30.5 69L30.4209 69.2372L30.49 69.2602L30.5606 69.2425L30.5 69ZM32.5 68.5L32.5606 68.7425L32.5873 68.7359L32.6118 68.7236L32.5 68.5ZM34.5 67.5L34.6118 67.2764L34.5 67.2205L34.3882 67.2764L34.5 67.5ZM36.5 68.5L36.3882 68.7236L36.441 68.75H36.5V68.5ZM39 68.5L39.0606 68.2575L39.0308 68.25H39V68.5ZM41 69L40.9394 69.2425L41 69.2577L41.0606 69.2425L41 69ZM43 68.5L43.049 68.2549L42.9939 68.2438L42.9394 68.2575L43 68.5ZM45.5 69L45.451 69.2451L45.5061 69.2562L45.5606 69.2425L45.5 69ZM47.5 68.5V68.25H47.4692L47.4394 68.2575L47.5 68.5ZM51 68.5L51.1118 68.2764L51.059 68.25H51V68.5ZM52 69L51.8882 69.2236L51.941 69.25H52V69ZM54.5 69V69.25H54.5406L54.5791 69.2372L54.5 69ZM56 68.5L56.0411 68.2534L55.9799 68.2432L55.9209 68.2628L56 68.5ZM59 69L58.9589 69.2466L58.9948 69.2526L59.031 69.2481L59 69ZM61.6667 68.5C61.6667 69.2364 62.2636 69.8333 63 69.8333C63.7364 69.8333 64.3333 69.2364 64.3333 68.5C64.3333 67.7636 63.7364 67.1667 63 67.1667C62.2636 67.1667 61.6667 67.7636 61.6667 68.5ZM0.810186 38.1627L3.81019 41.6627L4.18981 41.3373L1.18981 37.8373L0.810186 38.1627ZM3.75 41.5V46H4.25V41.5H3.75ZM4 46.25H8.5V45.75H4V46.25ZM8.25 46V52H8.75V46H8.25ZM8.5 52.25H13V51.75H8.5V52.25ZM12.75 52V56.5H13.25V52H12.75ZM12.8354 56.6881L16.8354 60.1881L17.1646 59.8119L13.1646 56.3119L12.8354 56.6881ZM17 60.25H19V59.75H17V60.25ZM18.7856 60.1286L20.2856 62.6286L20.7144 62.3714L19.2144 59.8714L18.7856 60.1286ZM20.25 62.5V64H20.75V62.5H20.25ZM20.3882 64.2236L21.3882 64.7236L21.6118 64.2764L20.6118 63.7764L20.3882 64.2236ZM21.4209 64.7372L24.4209 65.7372L24.5791 65.2628L21.5791 64.2628L21.4209 64.7372ZM24.25 65.5V67.5H24.75V65.5H24.25ZM24.5 67.75H26.5V67.25H24.5V67.75ZM26.292 67.6387L27.292 69.1387L27.708 68.8613L26.708 67.3613L26.292 67.6387ZM27.5791 69.2372L29.0791 68.7372L28.9209 68.2628L27.4209 68.7628L27.5791 69.2372ZM28.9209 68.7372L30.4209 69.2372L30.5791 68.7628L29.0791 68.2628L28.9209 68.7372ZM30.5606 69.2425L32.5606 68.7425L32.4394 68.2575L30.4394 68.7575L30.5606 69.2425ZM32.6118 68.7236L34.6118 67.7236L34.3882 67.2764L32.3882 68.2764L32.6118 68.7236ZM34.3882 67.7236L36.3882 68.7236L36.6118 68.2764L34.6118 67.2764L34.3882 67.7236ZM36.5 68.75H39V68.25H36.5V68.75ZM38.9394 68.7425L40.9394 69.2425L41.0606 68.7575L39.0606 68.2575L38.9394 68.7425ZM41.0606 69.2425L43.0606 68.7425L42.9394 68.2575L40.9394 68.7575L41.0606 69.2425ZM42.951 68.7451L45.451 69.2451L45.549 68.7549L43.049 68.2549L42.951 68.7451ZM45.5606 69.2425L47.5606 68.7425L47.4394 68.2575L45.4394 68.7575L45.5606 69.2425ZM47.5 68.75H51V68.25H47.5V68.75ZM50.8882 68.7236L51.8882 69.2236L52.1118 68.7764L51.1118 68.2764L50.8882 68.7236ZM52 69.25H54.5V68.75H52V69.25ZM54.5791 69.2372L56.0791 68.7372L55.9209 68.2628L54.4209 68.7628L54.5791 69.2372ZM55.9589 68.7466L58.9589 69.2466L59.0411 68.7534L56.0411 68.2534L55.9589 68.7466ZM59.031 69.2481L63.031 68.7481L62.969 68.2519L58.969 68.7519L59.031 69.2481Z" fill="#B9B9B9"/>
<path d="M24.125 90.0994C23.59 90.0994 23.1342 89.9538 22.7578 89.6626C22.3814 89.3691 22.0938 88.9441 21.8949 88.3878C21.696 87.8291 21.5966 87.1544 21.5966 86.3636C21.5966 85.5777 21.696 84.9065 21.8949 84.3501C22.0961 83.7914 22.3849 83.3653 22.7614 83.0717C23.1402 82.7758 23.5947 82.6278 24.125 82.6278C24.6553 82.6278 25.1087 82.7758 25.4851 83.0717C25.8639 83.3653 26.1527 83.7914 26.3516 84.3501C26.5528 84.9065 26.6534 85.5777 26.6534 86.3636C26.6534 87.1544 26.554 87.8291 26.3551 88.3878C26.1562 88.9441 25.8686 89.3691 25.4922 89.6626C25.1158 89.9538 24.66 90.0994 24.125 90.0994ZM24.125 89.3182C24.6553 89.3182 25.0672 89.0625 25.3608 88.5511C25.6544 88.0398 25.8011 87.3106 25.8011 86.3636C25.8011 85.7339 25.7337 85.1977 25.5987 84.755C25.4661 84.3123 25.2744 83.9749 25.0234 83.7429C24.7749 83.5109 24.4754 83.3949 24.125 83.3949C23.5994 83.3949 23.1887 83.6541 22.8928 84.1726C22.5968 84.6887 22.4489 85.419 22.4489 86.3636C22.4489 86.9934 22.5152 87.5284 22.6477 87.9688C22.7803 88.4091 22.9709 88.7441 23.2195 88.9737C23.4704 89.2034 23.7723 89.3182 24.125 89.3182ZM28.3739 90.0568C28.1987 90.0568 28.0484 89.9941 27.9229 89.8686C27.7975 89.7431 27.7347 89.5928 27.7347 89.4176C27.7347 89.2424 27.7975 89.0921 27.9229 88.9666C28.0484 88.8411 28.1987 88.7784 28.3739 88.7784C28.5491 88.7784 28.6995 88.8411 28.8249 88.9666C28.9504 89.0921 29.0131 89.2424 29.0131 89.4176C29.0131 89.5336 28.9835 89.6402 28.9244 89.7372C28.8675 89.8343 28.7906 89.9124 28.6935 89.9716C28.5988 90.0284 28.4923 90.0568 28.3739 90.0568ZM32.1905 82.7273V90H31.3098V83.6506H31.2672L29.4917 84.8295V83.9347L31.3098 82.7273H32.1905ZM36.6969 90.0994C36.3986 90.0947 36.1003 90.0379 35.802 89.929C35.5037 89.8201 35.2315 89.6366 34.9853 89.3786C34.7391 89.1181 34.5414 88.7666 34.3922 88.3239C34.2431 87.8788 34.1685 87.3201 34.1685 86.6477C34.1685 86.0038 34.2289 85.4332 34.3496 84.9361C34.4703 84.4366 34.6455 84.0163 34.8752 83.6754C35.1048 83.3321 35.3818 83.0717 35.7061 82.8942C36.0328 82.7166 36.401 82.6278 36.8105 82.6278C37.2177 82.6278 37.58 82.7095 37.8972 82.8729C38.2168 83.0339 38.4772 83.2588 38.6784 83.5476C38.8797 83.8364 39.0099 84.169 39.0691 84.5455H38.2026C38.1221 84.2187 37.9658 83.9477 37.7338 83.7322C37.5018 83.5168 37.1941 83.4091 36.8105 83.4091C36.2471 83.4091 35.8032 83.6541 35.4789 84.1442C35.1569 84.6342 34.9947 85.322 34.9924 86.2074H35.0492C35.1818 86.0062 35.3392 85.8345 35.5215 85.6925C35.7061 85.5481 35.9097 85.4368 36.1323 85.3587C36.3548 85.2805 36.5904 85.2415 36.839 85.2415C37.2556 85.2415 37.6368 85.3456 37.9824 85.554C38.3281 85.7599 38.6051 86.0452 38.8134 86.4098C39.0217 86.772 39.1259 87.1875 39.1259 87.6562C39.1259 88.1061 39.0253 88.518 38.824 88.892C38.6228 89.2637 38.3399 89.5597 37.9753 89.7798C37.6131 89.9976 37.187 90.1042 36.6969 90.0994ZM36.6969 89.3182C36.9952 89.3182 37.2627 89.2436 37.4995 89.0945C37.7386 88.9453 37.9268 88.7453 38.0641 88.4943C38.2038 88.2434 38.2736 87.964 38.2736 87.6562C38.2736 87.3556 38.2061 87.0821 38.0712 86.8359C37.9386 86.5874 37.7551 86.3897 37.5208 86.2429C37.2888 86.0961 37.0236 86.0227 36.7253 86.0227C36.5004 86.0227 36.2909 86.0677 36.0968 86.1577C35.9026 86.2453 35.7322 86.366 35.5854 86.5199C35.441 86.6738 35.3274 86.8501 35.2445 87.049C35.1616 87.2455 35.1202 87.4527 35.1202 87.6705C35.1202 87.9593 35.1877 88.2292 35.3226 88.4801C35.4599 88.7311 35.647 88.9335 35.8837 89.0874C36.1228 89.2412 36.3939 89.3182 36.6969 89.3182ZM42.7951 90.0994C42.3784 90.0994 42.0032 90.0166 41.6694 89.8509C41.3356 89.6851 41.0681 89.4579 40.8668 89.169C40.6656 88.8802 40.5555 88.5511 40.5366 88.1818H41.3888C41.422 88.5109 41.5711 88.7831 41.8363 88.9986C42.1038 89.2116 42.4234 89.3182 42.7951 89.3182C43.0934 89.3182 43.3585 89.2483 43.5906 89.1087C43.8249 88.969 44.0084 88.7772 44.141 88.5334C44.2759 88.2872 44.3434 88.009 44.3434 87.6989C44.3434 87.3816 44.2736 87.0987 44.1339 86.8501C43.9966 86.5992 43.8072 86.4015 43.5657 86.2571C43.3242 86.1127 43.0484 86.0393 42.7383 86.0369C42.5157 86.0346 42.2873 86.0689 42.0529 86.1399C41.8185 86.2086 41.6256 86.2973 41.4741 86.4062L40.6502 86.3068L41.0906 82.7273H44.869V83.5085H41.8292L41.5735 85.6534H41.6161C41.7653 85.535 41.9523 85.4368 42.1772 85.3587C42.4021 85.2805 42.6365 85.2415 42.8803 85.2415C43.3254 85.2415 43.7219 85.348 44.07 85.5611C44.4203 85.7718 44.695 86.0606 44.8938 86.4276C45.0951 86.7945 45.1957 87.2135 45.1957 87.6847C45.1957 88.1487 45.0915 88.563 44.8832 88.9276C44.6772 89.2898 44.3931 89.5762 44.0309 89.7869C43.6687 89.9953 43.2567 90.0994 42.7951 90.0994Z" fill="white" fill-opacity="0.64"/>
<path d="M47.3765 46.8073V53.1994H19.0191V46.8073H47.3765ZM51.5604 46.11V53.1994C51.5604 59.2815 50.805 64.2886 49.2942 68.2207C47.7833 72.1528 45.6526 75.0679 42.9021 76.9662C40.1516 78.8644 36.9168 79.8135 33.1978 79.8135C29.4788 79.8135 26.2247 78.8644 23.4354 76.9662C20.6462 75.0679 18.4768 72.1528 16.9272 68.2207C15.3776 64.2886 14.6028 59.2815 14.6028 53.1994V46.11C14.6028 40.0666 15.3679 35.1176 16.8981 31.263C18.4283 27.4084 20.5784 24.5611 23.3483 22.7209C26.1182 20.8808 29.3626 19.9607 33.0816 19.9607C36.8394 19.9607 40.1032 20.8808 42.8731 22.7209C45.6429 24.5611 47.7833 27.4084 49.2942 31.263C50.805 35.1176 51.5604 40.0666 51.5604 46.11ZM44.5873 54.4778V44.8316C44.5873 40.8414 44.103 37.4517 43.1346 34.6624C42.1661 31.8732 40.8199 29.7522 39.0959 28.2995C37.372 26.8467 35.3673 26.1204 33.0816 26.1204C29.7113 26.1204 26.9317 27.7474 24.7429 31.0016C22.5541 34.2363 21.4597 38.8463 21.4597 44.8316V54.4778C21.4597 60.4631 22.5735 65.1603 24.801 68.5693C27.0285 71.9591 29.8275 73.6539 33.1978 73.6539C35.4835 73.6539 37.4786 72.8888 39.1831 71.3586C40.8877 69.8284 42.2145 67.6299 43.1636 64.7632C44.1127 61.8964 44.5873 58.468 44.5873 54.4778Z" fill="white" fill-opacity="0.07"/>
</svg>
