<svg width="300" height="300" viewBox="0 0 48 75" fill="none" xmlns="http://www.w3.org/2000/svg">
<path d="M1 22V74H36V22" stroke="#B9B9B9" stroke-width="2" stroke-linecap="round"/>
<rect x="3.5" y="67.5" width="30" height="4" stroke="#9F9F9F"/>
<rect x="3.5" y="60.5" width="30" height="4" stroke="#9F9F9F"/>
<rect x="3.5" y="53.5" width="30" height="4" stroke="#9F9F9F"/>
<rect x="3.5" y="46.5" width="30" height="4" stroke="#9F9F9F"/>
<rect x="3.5" y="39.5" width="30" height="4" stroke="#9F9F9F"/>
<rect x="3.5" y="32.5" width="30" height="4" stroke="#9F9F9F"/>
<rect x="3.5" y="25.5" width="30" height="4" stroke="#9F9F9F"/>
<path d="M44.8169 22.4652C45.0738 22.5664 45.3641 22.4401 45.4652 22.1831L47.1136 17.9959C47.2147 17.739 47.0884 17.4487 46.8315 17.3475C46.5745 17.2464 46.2842 17.3727 46.1831 17.6296L44.7179 21.3516L40.9959 19.8864C40.739 19.7853 40.4487 19.9116 40.3475 20.1685C40.2464 20.4255 40.3727 20.7158 40.6296 20.8169L44.8169 22.4652ZM24.4158 22.2777C28.1904 16.627 32.2239 14.3284 35.727 14.51C39.2209 14.6911 42.4338 17.355 44.5415 22.1995L45.4585 21.8005C43.2707 16.772 39.8018 13.7199 35.7787 13.5113C31.7647 13.3032 27.446 15.941 23.5842 21.7223L24.4158 22.2777Z" fill="white" fill-opacity="0.65"/>
<path d="M17.9402 9V2.22891H20.4895C21.1464 2.22891 21.6647 2.40971 22.0444 2.77132C22.4301 3.13292 22.623 3.61205 22.623 4.20871C22.623 4.82344 22.4271 5.30859 22.0354 5.66417C21.6436 6.01975 21.1283 6.19754 20.4895 6.19754H18.6634V9H17.9402ZM18.6634 5.59185H20.381C20.8571 5.59185 21.2248 5.47734 21.4839 5.24833C21.7491 5.01328 21.8817 4.66674 21.8817 4.20871C21.8817 3.76272 21.7491 3.42522 21.4839 3.19621C21.2248 2.96116 20.8511 2.84364 20.3629 2.84364H18.6634V5.59185ZM24.0217 6.56819C24.0217 7.18292 24.1633 7.67109 24.4466 8.0327C24.7298 8.39431 25.0824 8.57511 25.5043 8.57511C25.9201 8.57511 26.2697 8.39431 26.5529 8.0327C26.8422 7.67109 26.9869 7.18292 26.9869 6.56819C26.9869 5.94141 26.8422 5.45022 26.5529 5.09464C26.2637 4.73906 25.9141 4.56127 25.5043 4.56127C25.0884 4.56127 24.7359 4.73906 24.4466 5.09464C24.1633 5.45022 24.0217 5.94141 24.0217 6.56819ZM23.3166 6.56819C23.3166 5.8269 23.5064 5.20915 23.8861 4.71496C24.2718 4.22076 24.8112 3.97366 25.5043 3.97366C26.1913 3.97366 26.7277 4.22076 27.1134 4.71496C27.4991 5.20915 27.692 5.8269 27.692 6.56819C27.692 6.88158 27.6498 7.18594 27.5654 7.48125C27.4871 7.77656 27.3635 8.05379 27.1948 8.31295C27.0321 8.56607 26.803 8.77098 26.5077 8.92768C26.2185 9.08438 25.884 9.16272 25.5043 9.16272C25.1306 9.16272 24.7961 9.08739 24.5008 8.93672C24.2115 8.78002 23.9825 8.57511 23.8138 8.32199C23.651 8.06283 23.5275 7.7856 23.4431 7.49029C23.3587 7.19498 23.3166 6.88761 23.3166 6.56819ZM29.832 6.55915C29.832 7.16183 29.9555 7.65 30.2026 8.02366C30.4497 8.39129 30.7903 8.57511 31.2242 8.57511C31.634 8.57511 31.9745 8.39431 32.2457 8.0327C32.5169 7.67109 32.6525 7.17991 32.6525 6.55915C32.6525 5.97455 32.523 5.49542 32.2638 5.12176C32.0107 4.7481 31.6641 4.56127 31.2242 4.56127C30.8144 4.56127 30.4799 4.75112 30.2207 5.1308C29.9616 5.50446 29.832 5.98058 29.832 6.55915ZM29.1449 11.1244V4.13638H29.8139V5.01328C29.9525 4.69989 30.1514 4.44978 30.4106 4.26295C30.6757 4.07009 30.9771 3.97366 31.3146 3.97366C31.9052 3.97366 32.3934 4.20871 32.7791 4.67879C33.1648 5.14888 33.3577 5.77567 33.3577 6.55915C33.3577 7.39687 33.1558 8.04174 32.752 8.49375C32.3482 8.93973 31.869 9.16272 31.3146 9.16272C30.953 9.16272 30.6456 9.06931 30.3925 8.88248C30.1394 8.68962 29.9525 8.44855 29.832 8.15926V11.1244H29.1449Z" fill="white"/>
</svg>
