<svg width="66" height="44" viewBox="0 0 66 44" fill="none" xmlns="http://www.w3.org/2000/svg">
<path d="M25.0352 9.73944L25.7355 7.48285H26.1961L25.1865 10.3885C25.1632 10.4505 25.1322 10.5172 25.0934 10.5886C25.0562 10.6615 25.0081 10.7305 24.9492 10.7956C24.8902 10.8608 24.8189 10.9135 24.7351 10.9538C24.6529 10.9957 24.5545 11.0166 24.4397 11.0166C24.4056 11.0166 24.3621 11.012 24.3094 11.0027C24.2567 10.9934 24.2195 10.9856 24.1977 10.9794L24.1954 10.6305C24.2078 10.632 24.2272 10.6336 24.2536 10.6351C24.2815 10.6382 24.3009 10.6398 24.3117 10.6398C24.4094 10.6398 24.4924 10.6266 24.5607 10.6002C24.6289 10.5754 24.6863 10.5327 24.7328 10.4723C24.7809 10.4133 24.822 10.3319 24.8561 10.228L25.0352 9.73944ZM24.5211 7.48285L25.1748 9.43702L25.2865 9.89066L24.9771 10.0489L24.0512 7.48285H24.5211ZM27.4082 9.01827V10.8538H27.0452V9.45563L26.5427 9.58823V9.28813L27.3663 9.01827H27.4082Z" fill="white"/>
<path d="M25.0352 16.092L25.7355 13.8354H26.1961L25.1865 16.7411C25.1632 16.8031 25.1322 16.8698 25.0934 16.9411C25.0562 17.014 25.0081 17.0831 24.9492 17.1482C24.8902 17.2133 24.8189 17.2661 24.7351 17.3064C24.6529 17.3483 24.5545 17.3692 24.4397 17.3692C24.4056 17.3692 24.3621 17.3645 24.3094 17.3552C24.2567 17.3459 24.2195 17.3382 24.1977 17.332L24.1954 16.983C24.2078 16.9846 24.2272 16.9861 24.2536 16.9877C24.2815 16.9908 24.3009 16.9923 24.3117 16.9923C24.4094 16.9923 24.4924 16.9791 24.5607 16.9528C24.6289 16.928 24.6863 16.8853 24.7328 16.8248C24.7809 16.7659 24.822 16.6845 24.8561 16.5806L25.0352 16.092ZM24.5211 13.8354L25.1748 15.7896L25.2865 16.2432L24.9771 16.4014L24.0512 13.8354H24.5211ZM27.8455 16.9086V17.2064H26.4543V16.9551L27.1243 16.3247C27.1941 16.2595 27.2492 16.2014 27.2895 16.1502C27.3298 16.099 27.3585 16.0532 27.3756 16.0129C27.3942 15.971 27.4035 15.933 27.4035 15.8989C27.4035 15.8245 27.3787 15.7632 27.3291 15.7151C27.2794 15.6671 27.2089 15.643 27.1174 15.643C27.001 15.643 26.915 15.6725 26.8591 15.7314C26.8048 15.7904 26.7777 15.864 26.7777 15.9524H26.4101C26.4101 15.8408 26.4381 15.7392 26.4939 15.6477C26.5497 15.5562 26.6296 15.4833 26.7335 15.429C26.8374 15.3732 26.9623 15.3452 27.108 15.3452C27.2476 15.3452 27.3671 15.3677 27.4663 15.4127C27.5656 15.4577 27.6416 15.5213 27.6943 15.6035C27.747 15.6841 27.7734 15.7811 27.7734 15.8943C27.7734 15.9765 27.7548 16.0532 27.7176 16.1246C27.6819 16.1959 27.6307 16.2673 27.564 16.3386C27.4973 16.41 27.4182 16.4867 27.3267 16.5689L26.9196 16.9086H27.8455Z" fill="white"/>
<path d="M25.0352 22.4446L25.7355 20.188H26.1961L25.1865 23.0937C25.1632 23.1557 25.1322 23.2224 25.0934 23.2937C25.0562 23.3666 25.0081 23.4357 24.9492 23.5008C24.8902 23.5659 24.8189 23.6187 24.7351 23.659C24.6529 23.7009 24.5545 23.7218 24.4397 23.7218C24.4056 23.7218 24.3621 23.7171 24.3094 23.7078C24.2567 23.6985 24.2195 23.6908 24.1977 23.6846L24.1954 23.3356C24.2078 23.3372 24.2272 23.3387 24.2536 23.3403C24.2815 23.3434 24.3009 23.3449 24.3117 23.3449C24.4094 23.3449 24.4924 23.3317 24.5607 23.3054C24.6289 23.2806 24.6863 23.2379 24.7328 23.1774C24.7809 23.1185 24.822 23.0371 24.8561 22.9332L25.0352 22.4446ZM24.5211 20.188L25.1748 22.1422L25.2865 22.5958L24.9771 22.754L24.0512 20.188H24.5211ZM26.8754 22.4911H27.0708C27.1468 22.4911 27.2096 22.4803 27.2593 22.4586C27.3089 22.4369 27.3461 22.4074 27.3709 22.3702C27.3973 22.3314 27.4105 22.2872 27.4105 22.2376C27.4105 22.1693 27.3857 22.1119 27.336 22.0654C27.2864 22.0189 27.2081 21.9956 27.1011 21.9956C27.0127 21.9956 26.939 22.015 26.8801 22.0538C26.8227 22.0926 26.794 22.1453 26.794 22.212H26.4287C26.4287 22.1065 26.4582 22.0158 26.5171 21.9398C26.5761 21.8622 26.656 21.8025 26.7568 21.7607C26.8576 21.7188 26.97 21.6978 27.0941 21.6978C27.229 21.6978 27.3477 21.718 27.45 21.7583C27.5524 21.7971 27.6323 21.8553 27.6896 21.9328C27.747 22.0104 27.7757 22.1057 27.7757 22.219C27.7757 22.3012 27.7501 22.3771 27.699 22.4469C27.6493 22.5152 27.5764 22.5702 27.4803 22.6121C27.3857 22.6524 27.2701 22.6726 27.1336 22.6726H26.8754V22.4911ZM26.8754 22.7587V22.5772H27.1336C27.2887 22.5772 27.4159 22.5958 27.5152 22.6331C27.6144 22.6703 27.6881 22.7238 27.7362 22.7936C27.7843 22.8634 27.8083 22.9479 27.8083 23.0471C27.8083 23.1604 27.7773 23.2573 27.7152 23.3379C27.6532 23.4186 27.5679 23.4799 27.4593 23.5217C27.3523 23.5636 27.2313 23.5845 27.0964 23.5845C26.9801 23.5845 26.8684 23.5652 26.7614 23.5264C26.656 23.4892 26.5699 23.4302 26.5032 23.3496C26.4365 23.2689 26.4032 23.1658 26.4032 23.0402H26.7684C26.7684 23.11 26.7994 23.1681 26.8615 23.2146C26.9235 23.2627 27.0057 23.2868 27.108 23.2868C27.2166 23.2868 27.2988 23.2627 27.3546 23.2146C27.412 23.1666 27.4407 23.1045 27.4407 23.0285C27.4407 22.9634 27.4252 22.9107 27.3942 22.8703C27.3647 22.8316 27.3221 22.8029 27.2662 22.7843C27.212 22.7672 27.1468 22.7587 27.0708 22.7587H26.8754Z" fill="white"/>
<path d="M25.5406 34.6444L26.2408 32.3878H26.7014L25.6918 35.2935C25.6685 35.3555 25.6375 35.4222 25.5987 35.4935C25.5615 35.5664 25.5134 35.6355 25.4545 35.7006C25.3955 35.7657 25.3242 35.8185 25.2404 35.8588C25.1582 35.9007 25.0598 35.9216 24.945 35.9216C24.9109 35.9216 24.8675 35.9169 24.8147 35.9076C24.762 35.8983 24.7248 35.8906 24.7031 35.8844L24.7007 35.5354C24.7131 35.537 24.7325 35.5385 24.7589 35.5401C24.7868 35.5432 24.8062 35.5447 24.817 35.5447C24.9148 35.5447 24.9977 35.5315 25.066 35.5052C25.1342 35.4804 25.1916 35.4377 25.2381 35.3772C25.2862 35.3183 25.3273 35.2369 25.3614 35.133L25.5406 34.6444ZM25.0264 32.3878L25.6801 34.342L25.7918 34.7956L25.4824 34.9538L24.5565 32.3878H25.0264ZM27.2686 34.7171V35.905H26.9322V34.3947H27.249L27.2686 34.7171ZM27.2086 35.094L27.0997 35.0926C27.1006 34.9856 27.1155 34.8874 27.1444 34.7981C27.1741 34.7087 27.2151 34.632 27.2672 34.5678C27.3202 34.5036 27.3835 34.4542 27.457 34.4198C27.5305 34.3844 27.6124 34.3668 27.7027 34.3668C27.7753 34.3668 27.8409 34.377 27.8995 34.3975C27.9591 34.417 28.0098 34.4491 28.0516 34.4938C28.0945 34.5385 28.127 34.5966 28.1494 34.6683C28.1717 34.739 28.1829 34.826 28.1829 34.9293V35.905H27.8451V34.9279C27.8451 34.8553 27.8344 34.7981 27.813 34.7562C27.7925 34.7134 27.7622 34.6832 27.7222 34.6655C27.6832 34.6469 27.6343 34.6376 27.5757 34.6376C27.518 34.6376 27.4663 34.6497 27.4207 34.6738C27.3751 34.698 27.3365 34.7311 27.3049 34.7729C27.2742 34.8148 27.2504 34.8632 27.2337 34.9181C27.2169 34.973 27.2086 35.0316 27.2086 35.094Z" fill="white"/>
<circle cx="25.7686" cy="25.1045" r="0.397036" transform="rotate(90 25.7686 25.1045)" fill="#D9D9D9"/>
<circle cx="25.7686" cy="27.4867" r="0.397036" transform="rotate(90 25.7686 27.4867)" fill="#D9D9D9"/>
<circle cx="25.7686" cy="29.8689" r="0.397036" transform="rotate(90 25.7686 29.8689)" fill="#D9D9D9"/>
<path d="M8.61882 7.48285L9.17017 8.39945L9.7285 7.48285H10.2333L9.40979 8.72514L10.2589 10H9.76107L9.17948 9.05549L8.59788 10H8.09771L8.94451 8.72514L8.1233 7.48285H8.61882ZM11.5152 9.01827V10.8538H11.1523V9.45563L10.6498 9.58823V9.28813L11.4733 9.01827H11.5152Z" fill="white"/>
<path d="M8.61882 13.8354L9.17017 14.752L9.7285 13.8354H10.2333L9.40979 15.0777L10.2589 16.3526H9.76107L9.17948 15.4081L8.59788 16.3526H8.09771L8.94451 15.0777L8.1233 13.8354H8.61882ZM11.9525 16.9086V17.2064H10.5613V16.9551L11.2313 16.3247C11.3011 16.2595 11.3562 16.2014 11.3965 16.1502C11.4368 16.099 11.4655 16.0532 11.4826 16.0129C11.5012 15.971 11.5105 15.933 11.5105 15.8989C11.5105 15.8245 11.4857 15.7632 11.4361 15.7151C11.3864 15.6671 11.3159 15.643 11.2244 15.643C11.108 15.643 11.022 15.6725 10.9661 15.7314C10.9119 15.7904 10.8847 15.864 10.8847 15.9524H10.5171C10.5171 15.8408 10.5451 15.7392 10.6009 15.6477C10.6567 15.5562 10.7366 15.4833 10.8405 15.429C10.9444 15.3732 11.0693 15.3452 11.2151 15.3452C11.3546 15.3452 11.4741 15.3677 11.5733 15.4127C11.6726 15.4577 11.7486 15.5213 11.8013 15.6035C11.854 15.6841 11.8804 15.7811 11.8804 15.8943C11.8804 15.9765 11.8618 16.0532 11.8246 16.1246C11.7889 16.1959 11.7377 16.2673 11.671 16.3386C11.6043 16.41 11.5252 16.4867 11.4337 16.5689L11.0266 16.9086H11.9525Z" fill="white"/>
<path d="M8.61882 20.188L9.17017 21.1046L9.7285 20.188H10.2333L9.40979 21.4303L10.2589 22.7052H9.76107L9.17948 21.7607L8.59788 22.7052H8.09771L8.94451 21.4303L8.1233 20.188H8.61882ZM10.9824 22.4911H11.1778C11.2538 22.4911 11.3166 22.4803 11.3663 22.4586C11.4159 22.4369 11.4531 22.4074 11.4779 22.3702C11.5043 22.3314 11.5175 22.2872 11.5175 22.2376C11.5175 22.1693 11.4927 22.1119 11.443 22.0654C11.3934 22.0189 11.3151 21.9956 11.2081 21.9956C11.1197 21.9956 11.046 22.015 10.9871 22.0538C10.9297 22.0926 10.901 22.1453 10.901 22.212H10.5358C10.5358 22.1065 10.5652 22.0158 10.6242 21.9398C10.6831 21.8622 10.763 21.8025 10.8638 21.7607C10.9646 21.7188 11.077 21.6978 11.2011 21.6978C11.336 21.6978 11.4547 21.718 11.557 21.7583C11.6594 21.7971 11.7393 21.8553 11.7967 21.9328C11.854 22.0104 11.8827 22.1057 11.8827 22.219C11.8827 22.3012 11.8571 22.3771 11.806 22.4469C11.7563 22.5152 11.6834 22.5702 11.5873 22.6121C11.4927 22.6524 11.3771 22.6726 11.2407 22.6726H10.9824V22.4911ZM10.9824 22.7587V22.5772H11.2407C11.3957 22.5772 11.5229 22.5958 11.6222 22.6331C11.7214 22.6703 11.7951 22.7238 11.8432 22.7936C11.8913 22.8634 11.9153 22.9479 11.9153 23.0471C11.9153 23.1604 11.8843 23.2573 11.8222 23.3379C11.7602 23.4186 11.6749 23.4799 11.5663 23.5217C11.4593 23.5636 11.3384 23.5845 11.2034 23.5845C11.0871 23.5845 10.9754 23.5652 10.8684 23.5264C10.763 23.4892 10.6769 23.4302 10.6102 23.3496C10.5435 23.2689 10.5102 23.1658 10.5102 23.0402H10.8754C10.8754 23.11 10.9064 23.1681 10.9685 23.2146C11.0305 23.2627 11.1127 23.2868 11.2151 23.2868C11.3236 23.2868 11.4058 23.2627 11.4617 23.2146C11.519 23.1666 11.5477 23.1045 11.5477 23.0285C11.5477 22.9634 11.5322 22.9107 11.5012 22.8703C11.4717 22.8316 11.4291 22.8029 11.3733 22.7843C11.319 22.7672 11.2538 22.7587 11.1778 22.7587H10.9824Z" fill="white"/>
<path d="M9.12413 32.3878L9.67548 33.3044L10.2338 32.3878H10.7386L9.9151 33.6301L10.7642 34.905H10.2664L9.68479 33.9605L9.10319 34.905H8.60302L9.44982 33.6301L8.62861 32.3878H9.12413ZM11.3756 34.7171V35.905H11.0392V34.3947H11.3561L11.3756 34.7171ZM11.3156 35.094L11.2067 35.0926C11.2076 34.9856 11.2225 34.8874 11.2514 34.7981C11.2812 34.7087 11.3221 34.632 11.3742 34.5678C11.4272 34.5036 11.4905 34.4542 11.564 34.4198C11.6376 34.3844 11.7194 34.3668 11.8097 34.3668C11.8823 34.3668 11.9479 34.377 12.0065 34.3975C12.0661 34.417 12.1168 34.4491 12.1587 34.4938C12.2015 34.5385 12.234 34.5966 12.2564 34.6683C12.2787 34.739 12.2899 34.826 12.2899 34.9293V35.905H11.9521V34.9279C11.9521 34.8553 11.9414 34.7981 11.92 34.7562C11.8995 34.7134 11.8693 34.6832 11.8292 34.6655C11.7902 34.6469 11.7413 34.6376 11.6827 34.6376C11.625 34.6376 11.5733 34.6497 11.5277 34.6738C11.4822 34.698 11.4435 34.7311 11.4119 34.7729C11.3812 34.8148 11.3575 34.8632 11.3407 34.9181C11.324 34.973 11.3156 35.0316 11.3156 35.094Z" fill="white"/>
<circle cx="9.76861" cy="25.1045" r="0.397036" transform="rotate(90 9.76861 25.1045)" fill="#D9D9D9"/>
<circle cx="9.76861" cy="27.4867" r="0.397036" transform="rotate(90 9.76861 27.4867)" fill="#D9D9D9"/>
<circle cx="9.76861" cy="29.8689" r="0.397036" transform="rotate(90 9.76861 29.8689)" fill="#D9D9D9"/>
<path d="M4 1H2C1.44772 1 1 1.44772 1 2V42C1 42.5523 1.44772 43 2 43H4" stroke="#B9B9B9" stroke-width="0.3" stroke-linecap="round"/>
<path d="M7 4H5C4.44772 4 4 4.44772 4 5V39C4 39.5523 4.44772 40 5 40H7" stroke="#B9B9B9" stroke-width="0.278571" stroke-linecap="round"/>
<path d="M23 4H21C20.4477 4 20 4.44772 20 5V39C20 39.5523 20.4477 40 21 40H23" stroke="#B9B9B9" stroke-width="0.278571" stroke-linecap="round"/>
<path d="M13 40H15C15.5523 40 16 39.5523 16 39L16 5C16 4.44771 15.5523 4 15 4H13" stroke="#B9B9B9" stroke-width="0.278571" stroke-linecap="round"/>
<path d="M58.6188 7.48285L59.1702 8.39945L59.7285 7.48285H60.2333L59.4098 8.72514L60.2589 10H59.7611L59.1795 9.05549L58.5979 10H58.0977L58.9445 8.72514L58.1233 7.48285H58.6188ZM61.5152 9.01827V10.8538H61.1523V9.45563L60.6498 9.58823V9.28813L61.4733 9.01827H61.5152Z" fill="white"/>
<path d="M58.6188 13.8354L59.1702 14.752L59.7285 13.8354H60.2333L59.4098 15.0777L60.2589 16.3526H59.7611L59.1795 15.4081L58.5979 16.3526H58.0977L58.9445 15.0777L58.1233 13.8354H58.6188ZM61.9525 16.9086V17.2064H60.5613V16.9551L61.2313 16.3247C61.3011 16.2595 61.3562 16.2014 61.3965 16.1502C61.4368 16.099 61.4655 16.0532 61.4826 16.0129C61.5012 15.971 61.5105 15.933 61.5105 15.8989C61.5105 15.8245 61.4857 15.7632 61.4361 15.7151C61.3864 15.6671 61.3159 15.643 61.2244 15.643C61.108 15.643 61.022 15.6725 60.9661 15.7314C60.9119 15.7904 60.8847 15.864 60.8847 15.9524H60.5171C60.5171 15.8408 60.5451 15.7392 60.6009 15.6477C60.6567 15.5562 60.7366 15.4833 60.8405 15.429C60.9444 15.3732 61.0693 15.3452 61.2151 15.3452C61.3546 15.3452 61.4741 15.3677 61.5733 15.4127C61.6726 15.4577 61.7486 15.5213 61.8013 15.6035C61.854 15.6841 61.8804 15.7811 61.8804 15.8943C61.8804 15.9765 61.8618 16.0532 61.8246 16.1246C61.7889 16.1959 61.7377 16.2673 61.671 16.3386C61.6043 16.41 61.5252 16.4867 61.4337 16.5689L61.0266 16.9086H61.9525Z" fill="white"/>
<path d="M58.6188 20.188L59.1702 21.1046L59.7285 20.188H60.2333L59.4098 21.4303L60.2589 22.7052H59.7611L59.1795 21.7607L58.5979 22.7052H58.0977L58.9445 21.4303L58.1233 20.188H58.6188ZM60.9824 22.4911H61.1778C61.2538 22.4911 61.3166 22.4803 61.3663 22.4586C61.4159 22.4369 61.4531 22.4074 61.4779 22.3702C61.5043 22.3314 61.5175 22.2872 61.5175 22.2376C61.5175 22.1693 61.4927 22.1119 61.443 22.0654C61.3934 22.0189 61.3151 21.9956 61.2081 21.9956C61.1197 21.9956 61.046 22.015 60.9871 22.0538C60.9297 22.0926 60.901 22.1453 60.901 22.212H60.5358C60.5358 22.1065 60.5652 22.0158 60.6242 21.9398C60.6831 21.8622 60.763 21.8025 60.8638 21.7607C60.9646 21.7188 61.077 21.6978 61.2011 21.6978C61.336 21.6978 61.4547 21.718 61.557 21.7583C61.6594 21.7971 61.7393 21.8553 61.7967 21.9328C61.854 22.0104 61.8827 22.1057 61.8827 22.219C61.8827 22.3012 61.8571 22.3771 61.806 22.4469C61.7563 22.5152 61.6834 22.5702 61.5873 22.6121C61.4927 22.6524 61.3771 22.6726 61.2407 22.6726H60.9824V22.4911ZM60.9824 22.7587V22.5772H61.2407C61.3957 22.5772 61.5229 22.5958 61.6222 22.6331C61.7214 22.6703 61.7951 22.7238 61.8432 22.7936C61.8913 22.8634 61.9153 22.9479 61.9153 23.0471C61.9153 23.1604 61.8843 23.2573 61.8222 23.3379C61.7602 23.4186 61.6749 23.4799 61.5663 23.5217C61.4593 23.5636 61.3384 23.5845 61.2034 23.5845C61.0871 23.5845 60.9754 23.5652 60.8684 23.5264C60.763 23.4892 60.6769 23.4302 60.6102 23.3496C60.5435 23.2689 60.5102 23.1658 60.5102 23.0402H60.8754C60.8754 23.11 60.9064 23.1681 60.9685 23.2146C61.0305 23.2627 61.1127 23.2868 61.2151 23.2868C61.3236 23.2868 61.4058 23.2627 61.4617 23.2146C61.519 23.1666 61.5477 23.1045 61.5477 23.0285C61.5477 22.9634 61.5322 22.9107 61.5012 22.8703C61.4717 22.8316 61.4291 22.8029 61.3733 22.7843C61.319 22.7672 61.2538 22.7587 61.1778 22.7587H60.9824Z" fill="white"/>
<path d="M59.1241 32.3878L59.6755 33.3044L60.2338 32.3878H60.7386L59.9151 33.6301L60.7642 34.905H60.2664L59.6848 33.9605L59.1032 34.905H58.603L59.4498 33.6301L58.6286 32.3878H59.1241ZM61.3756 34.7171V35.905H61.0392V34.3947H61.3561L61.3756 34.7171ZM61.3156 35.094L61.2067 35.0926C61.2076 34.9856 61.2225 34.8874 61.2514 34.7981C61.2812 34.7087 61.3221 34.632 61.3742 34.5678C61.4272 34.5036 61.4905 34.4542 61.564 34.4198C61.6376 34.3844 61.7194 34.3668 61.8097 34.3668C61.8823 34.3668 61.9479 34.377 62.0065 34.3975C62.0661 34.417 62.1168 34.4491 62.1587 34.4938C62.2015 34.5385 62.234 34.5966 62.2564 34.6683C62.2787 34.739 62.2899 34.826 62.2899 34.9293V35.905H61.9521V34.9279C61.9521 34.8553 61.9414 34.7981 61.92 34.7562C61.8995 34.7134 61.8693 34.6832 61.8292 34.6655C61.7902 34.6469 61.7413 34.6376 61.6827 34.6376C61.625 34.6376 61.5733 34.6497 61.5277 34.6738C61.4822 34.698 61.4435 34.7311 61.4119 34.7729C61.3812 34.8148 61.3575 34.8632 61.3407 34.9181C61.324 34.973 61.3156 35.0316 61.3156 35.094Z" fill="white"/>
<circle cx="59.7686" cy="25.1045" r="0.397036" transform="rotate(90 59.7686 25.1045)" fill="#D9D9D9"/>
<circle cx="59.7686" cy="27.4867" r="0.397036" transform="rotate(90 59.7686 27.4867)" fill="#D9D9D9"/>
<circle cx="59.7686" cy="29.8689" r="0.397036" transform="rotate(90 59.7686 29.8689)" fill="#D9D9D9"/>
<path d="M57 4H55C54.4477 4 54 4.44772 54 5V39C54 39.5523 54.4477 40 55 40H57" stroke="#B9B9B9" stroke-width="0.278571" stroke-linecap="round"/>
<path d="M62 40H64C64.5523 40 65 39.5523 65 39V5C65 4.44771 64.5523 4 64 4H62" stroke="#B9B9B9" stroke-width="0.278571" stroke-linecap="round"/>
<path d="M28 40H30C30.5523 40 31 39.5523 31 39L31 5C31 4.44771 30.5523 4 30 4H28" stroke="#B9B9B9" stroke-width="0.278571" stroke-linecap="round"/>
<path d="M31 43H33C33.5523 43 34 42.5523 34 42L34 2C34 1.44772 33.5523 0.999999 33 0.999999H31" stroke="#B9B9B9" stroke-width="0.3" stroke-linecap="round"/>
<path d="M49.3536 21.3536C49.5488 21.1583 49.5488 20.8417 49.3536 20.6464L46.1716 17.4645C45.9763 17.2692 45.6597 17.2692 45.4645 17.4645C45.2692 17.6597 45.2692 17.9763 45.4645 18.1716L48.2929 21L45.4645 23.8284C45.2692 24.0237 45.2692 24.3403 45.4645 24.5355C45.6597 24.7308 45.9763 24.7308 46.1716 24.5355L49.3536 21.3536ZM39 21.5H49V20.5H39V21.5Z" fill="white"/>
<rect x="6" y="5" width="8" height="33" rx="2" fill="#46FF03" fill-opacity="0.25"/>
</svg>
