<svg width="300" height="300" viewBox="0 0 37 77" fill="none" xmlns="http://www.w3.org/2000/svg">
<path d="M1 24V76H36V24" stroke="#B9B9B9" stroke-width="2" stroke-linecap="round"/>
<rect x="3.5" y="69.5" width="30" height="4" stroke="#9F9F9F"/>
<rect x="3.5" y="62.5" width="30" height="4" stroke="#9F9F9F"/>
<rect x="3.5" y="55.5" width="30" height="4" stroke="#9F9F9F"/>
<rect x="3.5" y="48.5" width="30" height="4" stroke="#9F9F9F"/>
<rect x="3.5" y="41.5" width="30" height="4" stroke="#9F9F9F"/>
<rect x="3.5" y="34.5" width="30" height="4" stroke="#9F9F9F"/>
<rect x="3.5" y="27.5" width="30" height="4" stroke="#9F9F9F"/>
<path d="M7.82955 5.45455C7.77841 5.02273 7.57102 4.6875 7.20739 4.44886C6.84375 4.21023 6.39773 4.09091 5.86932 4.09091C5.48295 4.09091 5.14489 4.15341 4.85511 4.27841C4.56818 4.40341 4.34375 4.57528 4.18182 4.79403C4.02273 5.01278 3.94318 5.26136 3.94318 5.53977C3.94318 5.77273 3.99858 5.97301 4.10938 6.14062C4.22301 6.3054 4.3679 6.44318 4.54403 6.55398C4.72017 6.66193 4.90483 6.75142 5.09801 6.82244C5.29119 6.89062 5.46875 6.94602 5.63068 6.98864L6.51705 7.22727C6.74432 7.28693 6.99716 7.36932 7.27557 7.47443C7.55682 7.57955 7.82528 7.72301 8.08097 7.90483C8.33949 8.08381 8.55256 8.31392 8.72017 8.59517C8.88778 8.87642 8.97159 9.22159 8.97159 9.63068C8.97159 10.1023 8.84801 10.5284 8.60085 10.9091C8.35653 11.2898 7.99858 11.5923 7.52699 11.8168C7.05824 12.0412 6.48864 12.1534 5.81818 12.1534C5.19318 12.1534 4.65199 12.0526 4.1946 11.8509C3.74006 11.6491 3.3821 11.3679 3.12074 11.0071C2.86222 10.6463 2.71591 10.2273 2.68182 9.75H3.77273C3.80114 10.0795 3.91193 10.3523 4.10511 10.5682C4.30114 10.7812 4.5483 10.9403 4.84659 11.0455C5.14773 11.1477 5.47159 11.1989 5.81818 11.1989C6.22159 11.1989 6.58381 11.1335 6.90483 11.0028C7.22585 10.8693 7.48011 10.6847 7.66761 10.4489C7.85511 10.2102 7.94886 9.93182 7.94886 9.61364C7.94886 9.32386 7.8679 9.08807 7.70597 8.90625C7.54403 8.72443 7.33097 8.5767 7.06676 8.46307C6.80256 8.34943 6.51705 8.25 6.21023 8.16477L5.13636 7.85795C4.45455 7.66193 3.91477 7.3821 3.51705 7.01847C3.11932 6.65483 2.92045 6.17898 2.92045 5.59091C2.92045 5.10227 3.05256 4.67614 3.31676 4.3125C3.58381 3.94602 3.94176 3.66193 4.39062 3.46023C4.84233 3.25568 5.34659 3.15341 5.90341 3.15341C6.46591 3.15341 6.96591 3.25426 7.40341 3.45597C7.84091 3.65483 8.1875 3.92756 8.44318 4.27415C8.7017 4.62074 8.83807 5.0142 8.85227 5.45455H7.82955ZM13.4194 5.45455V6.30682H10.0273V5.45455H13.4194ZM11.016 3.88636H12.0217V10.125C12.0217 10.4091 12.0629 10.6222 12.1452 10.7642C12.2305 10.9034 12.3384 10.9972 12.4691 11.0455C12.6026 11.0909 12.7433 11.1136 12.891 11.1136C13.0018 11.1136 13.0927 11.108 13.1637 11.0966C13.2347 11.0824 13.2915 11.071 13.3342 11.0625L13.5387 11.9659C13.4705 11.9915 13.3754 12.017 13.2532 12.0426C13.131 12.071 12.9762 12.0852 12.7887 12.0852C12.5046 12.0852 12.2262 12.0241 11.9535 11.902C11.6836 11.7798 11.4592 11.5938 11.2802 11.3438C11.104 11.0938 11.016 10.7784 11.016 10.3977V3.88636ZM16.8583 12.1534C16.4435 12.1534 16.0671 12.0753 15.729 11.919C15.391 11.7599 15.1225 11.5312 14.9237 11.233C14.7248 10.9318 14.6254 10.5682 14.6254 10.142C14.6254 9.76705 14.6992 9.46307 14.8469 9.23011C14.9947 8.99432 15.1921 8.80966 15.4393 8.67614C15.6864 8.54261 15.9592 8.44318 16.2575 8.37784C16.5586 8.30966 16.8612 8.25568 17.1651 8.21591C17.5629 8.16477 17.8853 8.12642 18.1325 8.10085C18.3825 8.07244 18.5643 8.02557 18.6779 7.96023C18.7944 7.89489 18.8526 7.78125 18.8526 7.61932V7.58523C18.8526 7.16477 18.7376 6.83807 18.5075 6.60511C18.2802 6.37216 17.935 6.25568 17.4719 6.25568C16.9918 6.25568 16.6154 6.3608 16.3427 6.57102C16.07 6.78125 15.8782 7.00568 15.7674 7.24432L14.8129 6.90341C14.9833 6.50568 15.2106 6.19602 15.4947 5.97443C15.7816 5.75 16.0941 5.59375 16.4322 5.50568C16.7731 5.41477 17.1083 5.36932 17.4379 5.36932C17.6481 5.36932 17.8896 5.39489 18.1623 5.44602C18.4379 5.49432 18.7035 5.59517 18.9592 5.74858C19.2177 5.90199 19.4322 6.13352 19.6026 6.44318C19.7731 6.75284 19.8583 7.16761 19.8583 7.6875V12H18.8526V11.1136H18.8015C18.7333 11.2557 18.6197 11.4077 18.4606 11.5696C18.3015 11.7315 18.0898 11.8693 17.8256 11.983C17.5614 12.0966 17.239 12.1534 16.8583 12.1534ZM17.0117 11.25C17.4094 11.25 17.7447 11.1719 18.0174 11.0156C18.293 10.8594 18.5004 10.6577 18.6396 10.4105C18.7816 10.1634 18.8526 9.90341 18.8526 9.63068V8.71023C18.81 8.76136 18.7163 8.80824 18.5714 8.85085C18.4293 8.89062 18.2646 8.92614 18.0771 8.95739C17.8924 8.9858 17.712 9.01136 17.5359 9.03409C17.3626 9.05398 17.2219 9.07102 17.114 9.08523C16.8526 9.11932 16.6083 9.17472 16.381 9.25142C16.1566 9.32528 15.9748 9.4375 15.8356 9.58807C15.6992 9.7358 15.631 9.9375 15.631 10.1932C15.631 10.5426 15.7603 10.8068 16.0188 10.9858C16.2802 11.1619 16.6112 11.25 17.0117 11.25ZM24.353 12.1364C23.7393 12.1364 23.2109 11.9915 22.7678 11.7017C22.3246 11.4119 21.9837 11.0128 21.745 10.5043C21.5064 9.99574 21.3871 9.41477 21.3871 8.76136C21.3871 8.09659 21.5092 7.50994 21.7536 7.00142C22.0007 6.49006 22.3445 6.09091 22.7848 5.80398C23.228 5.5142 23.745 5.36932 24.3359 5.36932C24.7962 5.36932 25.2109 5.45455 25.5803 5.625C25.9496 5.79545 26.2521 6.03409 26.4879 6.34091C26.7237 6.64773 26.87 7.00568 26.9268 7.41477H25.9212C25.8445 7.11648 25.674 6.85227 25.4098 6.62216C25.1484 6.3892 24.7962 6.27273 24.353 6.27273C23.9609 6.27273 23.6172 6.375 23.3217 6.57955C23.0291 6.78125 22.8004 7.06676 22.6357 7.43608C22.4737 7.80256 22.3928 8.23295 22.3928 8.72727C22.3928 9.23295 22.4723 9.6733 22.6314 10.0483C22.7933 10.4233 23.0206 10.7145 23.3132 10.9219C23.6087 11.1293 23.9553 11.233 24.353 11.233C24.6143 11.233 24.8516 11.1875 25.0646 11.0966C25.2777 11.0057 25.4581 10.875 25.6058 10.7045C25.7536 10.5341 25.8587 10.3295 25.9212 10.0909H26.9268C26.87 10.4773 26.7294 10.8253 26.505 11.1349C26.2834 11.4418 25.9893 11.6861 25.6229 11.8679C25.2592 12.0469 24.8359 12.1364 24.353 12.1364ZM29.3345 9.61364L29.3175 8.36932H29.522L32.3857 5.45455H33.63L30.5788 8.53977H30.4936L29.3345 9.61364ZM28.397 12V3.27273H29.4027V12H28.397ZM32.5561 12L29.9993 8.76136L30.7152 8.0625L33.8345 12H32.5561Z" fill="white" fill-opacity="0.73"/>
</svg>
